<mxfile host="app.diagrams.net" modified="2023-08-27T14:37:32.874Z" agent="Mozilla/5.0 (Windows NT 10.0; Win64; x64) AppleWebKit/537.36 (KHTML, like Gecko) Chrome/116.0.0.0 Safari/537.36" etag="XLPW740DxDm1AGKGaXyV" version="21.6.9" type="github">
  <diagram name="Page-1" id="e7e014a7-5840-1c2e-5031-d8a46d1fe8dd">
    <mxGraphModel dx="2630" dy="662" grid="1" gridSize="10" guides="1" tooltips="1" connect="1" arrows="1" fold="1" page="1" pageScale="1" pageWidth="1169" pageHeight="826" background="none" math="0" shadow="0">
      <root>
        <mxCell id="0" />
        <mxCell id="1" parent="0" />
        <mxCell id="DdqO1dTazd_uW5nw462i-58" value="" style="rounded=0;whiteSpace=wrap;html=1;" vertex="1" parent="1">
          <mxGeometry x="210" y="510" width="480" height="300" as="geometry" />
        </mxCell>
        <mxCell id="DdqO1dTazd_uW5nw462i-41" value="" style="endArrow=none;html=1;rounded=0;" edge="1" parent="1">
          <mxGeometry width="50" height="50" relative="1" as="geometry">
            <mxPoint x="390" y="540" as="sourcePoint" />
            <mxPoint x="570" y="540" as="targetPoint" />
          </mxGeometry>
        </mxCell>
        <mxCell id="DdqO1dTazd_uW5nw462i-42" value="primary vlan bridge" style="edgeLabel;html=1;align=center;verticalAlign=middle;resizable=0;points=[];" vertex="1" connectable="0" parent="DdqO1dTazd_uW5nw462i-41">
          <mxGeometry x="-0.0556" y="-3" relative="1" as="geometry">
            <mxPoint as="offset" />
          </mxGeometry>
        </mxCell>
        <mxCell id="DdqO1dTazd_uW5nw462i-43" value="" style="endArrow=none;html=1;rounded=0;" edge="1" parent="1">
          <mxGeometry width="50" height="50" relative="1" as="geometry">
            <mxPoint x="250" y="680" as="sourcePoint" />
            <mxPoint x="430" y="680" as="targetPoint" />
          </mxGeometry>
        </mxCell>
        <mxCell id="DdqO1dTazd_uW5nw462i-44" value="isolated vlan" style="edgeLabel;html=1;align=center;verticalAlign=middle;resizable=0;points=[];" vertex="1" connectable="0" parent="DdqO1dTazd_uW5nw462i-43">
          <mxGeometry x="-0.1" y="-3" relative="1" as="geometry">
            <mxPoint as="offset" />
          </mxGeometry>
        </mxCell>
        <mxCell id="DdqO1dTazd_uW5nw462i-46" value="" style="endArrow=none;html=1;rounded=0;" edge="1" parent="1">
          <mxGeometry width="50" height="50" relative="1" as="geometry">
            <mxPoint x="480" y="680" as="sourcePoint" />
            <mxPoint x="660" y="680" as="targetPoint" />
          </mxGeometry>
        </mxCell>
        <mxCell id="DdqO1dTazd_uW5nw462i-47" value="communicate vlan" style="edgeLabel;html=1;align=center;verticalAlign=middle;resizable=0;points=[];" vertex="1" connectable="0" parent="DdqO1dTazd_uW5nw462i-46">
          <mxGeometry x="-0.1" y="-3" relative="1" as="geometry">
            <mxPoint as="offset" />
          </mxGeometry>
        </mxCell>
        <mxCell id="DdqO1dTazd_uW5nw462i-48" value="" style="endArrow=none;html=1;rounded=0;" edge="1" parent="1">
          <mxGeometry width="50" height="50" relative="1" as="geometry">
            <mxPoint x="290" y="680" as="sourcePoint" />
            <mxPoint x="420" y="540" as="targetPoint" />
          </mxGeometry>
        </mxCell>
        <mxCell id="DdqO1dTazd_uW5nw462i-50" style="edgeStyle=orthogonalEdgeStyle;rounded=0;orthogonalLoop=1;jettySize=auto;html=1;" edge="1" parent="1" source="DdqO1dTazd_uW5nw462i-49">
          <mxGeometry relative="1" as="geometry">
            <mxPoint x="265" y="680" as="targetPoint" />
          </mxGeometry>
        </mxCell>
        <mxCell id="DdqO1dTazd_uW5nw462i-49" value="VM_a_1" style="rounded=0;whiteSpace=wrap;html=1;" vertex="1" parent="1">
          <mxGeometry x="230" y="750" width="70" height="40" as="geometry" />
        </mxCell>
        <mxCell id="DdqO1dTazd_uW5nw462i-52" style="edgeStyle=orthogonalEdgeStyle;rounded=0;orthogonalLoop=1;jettySize=auto;html=1;" edge="1" parent="1" source="DdqO1dTazd_uW5nw462i-51">
          <mxGeometry relative="1" as="geometry">
            <mxPoint x="375" y="680" as="targetPoint" />
          </mxGeometry>
        </mxCell>
        <mxCell id="DdqO1dTazd_uW5nw462i-51" value="VM_a_2" style="rounded=0;whiteSpace=wrap;html=1;" vertex="1" parent="1">
          <mxGeometry x="340" y="750" width="70" height="40" as="geometry" />
        </mxCell>
        <mxCell id="DdqO1dTazd_uW5nw462i-56" style="edgeStyle=orthogonalEdgeStyle;rounded=0;orthogonalLoop=1;jettySize=auto;html=1;" edge="1" parent="1" source="DdqO1dTazd_uW5nw462i-53">
          <mxGeometry relative="1" as="geometry">
            <mxPoint x="525" y="690" as="targetPoint" />
          </mxGeometry>
        </mxCell>
        <mxCell id="DdqO1dTazd_uW5nw462i-53" value="VM_b_1" style="rounded=0;whiteSpace=wrap;html=1;" vertex="1" parent="1">
          <mxGeometry x="490" y="750" width="70" height="40" as="geometry" />
        </mxCell>
        <mxCell id="DdqO1dTazd_uW5nw462i-57" style="edgeStyle=orthogonalEdgeStyle;rounded=0;orthogonalLoop=1;jettySize=auto;html=1;" edge="1" parent="1" source="DdqO1dTazd_uW5nw462i-54">
          <mxGeometry relative="1" as="geometry">
            <mxPoint x="620" y="680" as="targetPoint" />
          </mxGeometry>
        </mxCell>
        <mxCell id="DdqO1dTazd_uW5nw462i-54" value="VM_b_3" style="rounded=0;whiteSpace=wrap;html=1;" vertex="1" parent="1">
          <mxGeometry x="585" y="750" width="70" height="40" as="geometry" />
        </mxCell>
        <mxCell id="DdqO1dTazd_uW5nw462i-55" value="" style="endArrow=none;html=1;rounded=0;" edge="1" parent="1">
          <mxGeometry width="50" height="50" relative="1" as="geometry">
            <mxPoint x="630" y="680" as="sourcePoint" />
            <mxPoint x="550" y="540" as="targetPoint" />
          </mxGeometry>
        </mxCell>
        <mxCell id="DdqO1dTazd_uW5nw462i-59" value="" style="rounded=0;whiteSpace=wrap;html=1;" vertex="1" parent="1">
          <mxGeometry x="750" y="510" width="480" height="300" as="geometry" />
        </mxCell>
        <mxCell id="DdqO1dTazd_uW5nw462i-60" value="" style="endArrow=none;html=1;rounded=0;" edge="1" parent="1">
          <mxGeometry width="50" height="50" relative="1" as="geometry">
            <mxPoint x="930" y="540" as="sourcePoint" />
            <mxPoint x="1110" y="540" as="targetPoint" />
          </mxGeometry>
        </mxCell>
        <mxCell id="DdqO1dTazd_uW5nw462i-61" value="primary vlan bridge" style="edgeLabel;html=1;align=center;verticalAlign=middle;resizable=0;points=[];" vertex="1" connectable="0" parent="DdqO1dTazd_uW5nw462i-60">
          <mxGeometry x="-0.0556" y="-3" relative="1" as="geometry">
            <mxPoint as="offset" />
          </mxGeometry>
        </mxCell>
        <mxCell id="DdqO1dTazd_uW5nw462i-62" value="" style="endArrow=none;html=1;rounded=0;" edge="1" parent="1">
          <mxGeometry width="50" height="50" relative="1" as="geometry">
            <mxPoint x="790" y="680" as="sourcePoint" />
            <mxPoint x="970" y="680" as="targetPoint" />
          </mxGeometry>
        </mxCell>
        <mxCell id="DdqO1dTazd_uW5nw462i-63" value="isolated vlan" style="edgeLabel;html=1;align=center;verticalAlign=middle;resizable=0;points=[];" vertex="1" connectable="0" parent="DdqO1dTazd_uW5nw462i-62">
          <mxGeometry x="-0.1" y="-3" relative="1" as="geometry">
            <mxPoint as="offset" />
          </mxGeometry>
        </mxCell>
        <mxCell id="DdqO1dTazd_uW5nw462i-64" value="" style="endArrow=none;html=1;rounded=0;" edge="1" parent="1">
          <mxGeometry width="50" height="50" relative="1" as="geometry">
            <mxPoint x="1020" y="680" as="sourcePoint" />
            <mxPoint x="1200" y="680" as="targetPoint" />
          </mxGeometry>
        </mxCell>
        <mxCell id="DdqO1dTazd_uW5nw462i-65" value="communicate vlan" style="edgeLabel;html=1;align=center;verticalAlign=middle;resizable=0;points=[];" vertex="1" connectable="0" parent="DdqO1dTazd_uW5nw462i-64">
          <mxGeometry x="-0.1" y="-3" relative="1" as="geometry">
            <mxPoint as="offset" />
          </mxGeometry>
        </mxCell>
        <mxCell id="DdqO1dTazd_uW5nw462i-66" value="" style="endArrow=none;html=1;rounded=0;" edge="1" parent="1">
          <mxGeometry width="50" height="50" relative="1" as="geometry">
            <mxPoint x="830" y="680" as="sourcePoint" />
            <mxPoint x="960" y="540" as="targetPoint" />
          </mxGeometry>
        </mxCell>
        <mxCell id="DdqO1dTazd_uW5nw462i-67" style="edgeStyle=orthogonalEdgeStyle;rounded=0;orthogonalLoop=1;jettySize=auto;html=1;" edge="1" parent="1" source="DdqO1dTazd_uW5nw462i-68">
          <mxGeometry relative="1" as="geometry">
            <mxPoint x="805" y="680" as="targetPoint" />
          </mxGeometry>
        </mxCell>
        <mxCell id="DdqO1dTazd_uW5nw462i-68" value="VM_a_3" style="rounded=0;whiteSpace=wrap;html=1;" vertex="1" parent="1">
          <mxGeometry x="770" y="750" width="70" height="40" as="geometry" />
        </mxCell>
        <mxCell id="DdqO1dTazd_uW5nw462i-69" style="edgeStyle=orthogonalEdgeStyle;rounded=0;orthogonalLoop=1;jettySize=auto;html=1;" edge="1" parent="1" source="DdqO1dTazd_uW5nw462i-70">
          <mxGeometry relative="1" as="geometry">
            <mxPoint x="915" y="680" as="targetPoint" />
          </mxGeometry>
        </mxCell>
        <mxCell id="DdqO1dTazd_uW5nw462i-70" value="VM_a_4" style="rounded=0;whiteSpace=wrap;html=1;" vertex="1" parent="1">
          <mxGeometry x="880" y="750" width="70" height="40" as="geometry" />
        </mxCell>
        <mxCell id="DdqO1dTazd_uW5nw462i-71" style="edgeStyle=orthogonalEdgeStyle;rounded=0;orthogonalLoop=1;jettySize=auto;html=1;" edge="1" parent="1" source="DdqO1dTazd_uW5nw462i-72">
          <mxGeometry relative="1" as="geometry">
            <mxPoint x="1065" y="690" as="targetPoint" />
          </mxGeometry>
        </mxCell>
        <mxCell id="DdqO1dTazd_uW5nw462i-72" value="VM_b_3" style="rounded=0;whiteSpace=wrap;html=1;" vertex="1" parent="1">
          <mxGeometry x="1030" y="750" width="70" height="40" as="geometry" />
        </mxCell>
        <mxCell id="DdqO1dTazd_uW5nw462i-73" style="edgeStyle=orthogonalEdgeStyle;rounded=0;orthogonalLoop=1;jettySize=auto;html=1;" edge="1" parent="1" source="DdqO1dTazd_uW5nw462i-74">
          <mxGeometry relative="1" as="geometry">
            <mxPoint x="1160" y="680" as="targetPoint" />
          </mxGeometry>
        </mxCell>
        <mxCell id="DdqO1dTazd_uW5nw462i-74" value="VM_b_4" style="rounded=0;whiteSpace=wrap;html=1;" vertex="1" parent="1">
          <mxGeometry x="1125" y="750" width="70" height="40" as="geometry" />
        </mxCell>
        <mxCell id="DdqO1dTazd_uW5nw462i-75" value="" style="endArrow=none;html=1;rounded=0;" edge="1" parent="1">
          <mxGeometry width="50" height="50" relative="1" as="geometry">
            <mxPoint x="1170" y="680" as="sourcePoint" />
            <mxPoint x="1090" y="540" as="targetPoint" />
          </mxGeometry>
        </mxCell>
        <mxCell id="DdqO1dTazd_uW5nw462i-77" style="edgeStyle=orthogonalEdgeStyle;rounded=0;orthogonalLoop=1;jettySize=auto;html=1;" edge="1" parent="1" source="DdqO1dTazd_uW5nw462i-76">
          <mxGeometry relative="1" as="geometry">
            <mxPoint x="270" y="720" as="targetPoint" />
          </mxGeometry>
        </mxCell>
        <mxCell id="DdqO1dTazd_uW5nw462i-76" value="isloated vlan下行口isolated属性打开" style="text;html=1;strokeColor=none;fillColor=none;align=center;verticalAlign=middle;whiteSpace=wrap;rounded=0;" vertex="1" parent="1">
          <mxGeometry x="-60" y="690" width="180" height="60" as="geometry" />
        </mxCell>
        <mxCell id="DdqO1dTazd_uW5nw462i-84" style="edgeStyle=orthogonalEdgeStyle;rounded=0;orthogonalLoop=1;jettySize=auto;html=1;" edge="1" parent="1" source="DdqO1dTazd_uW5nw462i-78">
          <mxGeometry relative="1" as="geometry">
            <mxPoint x="370" y="590" as="targetPoint" />
          </mxGeometry>
        </mxCell>
        <mxCell id="DdqO1dTazd_uW5nw462i-78" value="1. 使用veth pair连接primary vlan，isolated vlan和communicate vlan&lt;br&gt;2. primary vlan的下行口关闭unicst_flood" style="text;html=1;strokeColor=none;fillColor=none;align=center;verticalAlign=middle;whiteSpace=wrap;rounded=0;" vertex="1" parent="1">
          <mxGeometry x="-40" y="560" width="180" height="60" as="geometry" />
        </mxCell>
        <mxCell id="DdqO1dTazd_uW5nw462i-81" value="" style="endArrow=classic;html=1;rounded=0;" edge="1" parent="1">
          <mxGeometry width="50" height="50" relative="1" as="geometry">
            <mxPoint x="480" y="540" as="sourcePoint" />
            <mxPoint x="480" y="470" as="targetPoint" />
          </mxGeometry>
        </mxCell>
        <mxCell id="DdqO1dTazd_uW5nw462i-82" value="" style="endArrow=classic;html=1;rounded=0;" edge="1" parent="1">
          <mxGeometry width="50" height="50" relative="1" as="geometry">
            <mxPoint x="1000" y="540" as="sourcePoint" />
            <mxPoint x="1000" y="470" as="targetPoint" />
          </mxGeometry>
        </mxCell>
        <mxCell id="DdqO1dTazd_uW5nw462i-83" value="" style="endArrow=none;html=1;rounded=0;" edge="1" parent="1">
          <mxGeometry width="50" height="50" relative="1" as="geometry">
            <mxPoint x="450" y="470" as="sourcePoint" />
            <mxPoint x="1010" y="470" as="targetPoint" />
          </mxGeometry>
        </mxCell>
      </root>
    </mxGraphModel>
  </diagram>
</mxfile>
